<svg xmlns:xlink="http://www.w3.org/1999/xlink" xmlns="http://www.w3.org/2000/svg" width="454.09002380371095" height="108.99977134815308" viewBox="0 0 369.5443037974684 88.70541633909221" class="looka-1j8o68f"><defs id="SvgjsDefs2260"></defs><g id="SvgjsG2261" featurekey="2ou6gm-0" transform="matrix(0.9862552385726366,0,0,0.9862552385726366,-16.114396818306385,-4.96598497011329)" fill="#C0FF00"><g xmlns="http://www.w3.org/2000/svg" display="none" opacity="0.3" fill="#C0FF00"><path display="inline" d="M208,42.8c17.2-17.1,19.8-31.5,14-38.4c0,0,43.9,18,18.1,59.9c-4.4,7.1-15.5,15.5-9.7,32.8   C230.3,97.1,175.1,81.6,208,42.8z" fill="#C0FF00"></path><path display="inline" d="M234.6,96.2c-0.9-3.5-5.2-11.2,7.7-26.4c6.9-8.1,11.6-25.9,9.3-30.2c0,0,21.9,28.9-3.4,46.3   C233.1,96.3,234.6,96.2,234.6,96.2z" fill="#C0FF00"></path></g><path xmlns="http://www.w3.org/2000/svg" d="M82.8,50.2C75.9,17.4,57.9,7.5,51.7,5.1c-0.7-0.3-1.4,0.5-1,1.2c5.4,11-1.5,22.3-12.5,27.7c-1.1,0.5-2.4,0.1-2.9-0.9  c-1-1.9-1.5-3.9-1.3-6.2c0.1-1.3-1.4-2.1-2.4-1.1c-4.9,4.9-14,14.1-15.2,34C15.1,80.4,35,91.4,35,91.4c9.4,4.9,19.6,4.3,26.5,1  C73.9,86.4,87.4,72,82.8,50.2z M66.4,72.5c-0.6,6.7-6.7,11.8-11.4,13.8c-4.3,1.8-9.2,1.3-12.9-1.4C36.6,81,31.4,72,35.2,61.8  C40.3,47.9,49.6,43,54.3,40.9c0.9-0.4,1.5,0.4,1.4,1.4C53.4,58.1,67.4,61.5,66.4,72.5z" fill="#C0FF00"></path></g><g id="SvgjsG2262" featurekey="kZnDdN-0" transform="matrix(3.835981915305521,0,0,3.835981915305521,82.77777506310365,-6.0926092278349735)" fill="#FFFFFF"><path d="M0.84 20 l0 -13.7 l5.6 0 c4.22 0 6.98 3 6.98 6.78 c0 3.86 -2.88 6.92 -7.14 6.92 l-5.44 0 z M6.28 9.14 l-2.34 0 l0 8.02 l2.44 0 c2.22 0 3.92 -1.72 3.92 -4.04 c0 -2.28 -1.7 -3.98 -4.02 -3.98 z M17.451 20 l-3.1 0 l0 -13.7 l3.1 0 l0 13.7 z M32.682 13.120000000000001 c0 4.1 -2.84 7.16 -6.94 7.16 c-4.34 0 -7.38 -3.18 -7.38 -7.14 c0 -3.9 2.94 -7.12 7.38 -7.12 c2.56 0 4.54 1.04 5.78 2.82 l-2.28 1.94 c-0.92 -1.16 -2.06 -1.86 -3.5 -1.86 c-2.38 0 -4.22 1.76 -4.22 4.3 c0 2.4 1.72 4.18 4.14 4.18 c1.84 0 3.04 -0.92 3.56 -2.38 l-3.64 0 l0 -2.7 l7.1 0 l0 0.8 z M36.672999999999995 20 l-3.1 0 l0 -13.7 l3.1 0 l0 13.7 z M47.06399999999999 15.14 l-6.06 0 l0 4.86 l-3.1 0 l0 -13.7 l9.68 0 l0 2.84 l-6.58 0 l0 3.28 l6.06 0 l0 2.72 z M51.614999999999995 20 l-3.1 0 l0 -13.7 l3.1 0 l0 13.7 z M58.226 9.14 l-2.28 0 l0 3.66 l2.18 0 c1.34 0 2.16 -0.76 2.16 -1.82 s-0.68 -1.84 -2.06 -1.84 z M55.946 15.34 l0 4.66 l-3.1 0 l0 -13.7 l5.84 0 c2.92 0 4.72 1.88 4.72 4.56 c0 2.14 -1.42 3.92 -3.74 4.38 l4.36 4.76 l-4.04 0 z M64.717 20 l0 -13.7 l10.02 0 l0 2.8 l-6.92 0 l0 2.58 l6.4 0 l0 2.72 l-6.4 0 l0 2.8 l6.94 0 l0 2.8 l-10.04 0 z" fill="#FFFFFF"></path></g></svg>